<mxfile host="app.diagrams.net" modified="2020-11-03T13:16:03.109Z" agent="5.0 (Macintosh; Intel Mac OS X 10_15_7) AppleWebKit/537.36 (KHTML, like Gecko) Chrome/86.0.4240.111 Safari/537.36" etag="esOHcedb1QX8rd3_7hZu" version="13.8.5" type="github">
  <diagram id="gX5xE_9bdZ2ldvqt_yZb" name="Page-1">
    <mxGraphModel dx="1186" dy="1783" grid="1" gridSize="10" guides="1" tooltips="1" connect="1" arrows="1" fold="1" page="1" pageScale="1" pageWidth="827" pageHeight="1169" math="0" shadow="0">
      <root>
        <mxCell id="0" />
        <mxCell id="1" parent="0" />
        <mxCell id="zRgTGlAYgOwRYu9JpwOK-1" value="Home Page App" style="rounded=0;whiteSpace=wrap;html=1;" parent="1" vertex="1">
          <mxGeometry x="130" y="170" width="120" height="60" as="geometry" />
        </mxCell>
        <mxCell id="zRgTGlAYgOwRYu9JpwOK-2" value="Search/Product&amp;nbsp; App" style="rounded=0;whiteSpace=wrap;html=1;" parent="1" vertex="1">
          <mxGeometry x="130" y="240" width="120" height="60" as="geometry" />
        </mxCell>
        <mxCell id="zRgTGlAYgOwRYu9JpwOK-3" value="Cart Checkout App" style="rounded=0;whiteSpace=wrap;html=1;" parent="1" vertex="1">
          <mxGeometry x="130" y="310" width="120" height="60" as="geometry" />
        </mxCell>
        <mxCell id="zRgTGlAYgOwRYu9JpwOK-4" value="Account App" style="rounded=0;whiteSpace=wrap;html=1;" parent="1" vertex="1">
          <mxGeometry x="130" y="380" width="120" height="60" as="geometry" />
        </mxCell>
        <mxCell id="zRgTGlAYgOwRYu9JpwOK-5" value="sonepar.fr/home&lt;br&gt;sonepar.fr/search&lt;br&gt;sonepar.fr/cart&lt;br&gt;sonepar.fr/account" style="rounded=0;whiteSpace=wrap;html=1;" parent="1" vertex="1">
          <mxGeometry x="481" y="120" width="250" height="60" as="geometry" />
        </mxCell>
        <mxCell id="zRgTGlAYgOwRYu9JpwOK-7" value="+ other OpCOs" style="rounded=0;whiteSpace=wrap;html=1;" parent="1" vertex="1">
          <mxGeometry x="481" y="450" width="250" height="60" as="geometry" />
        </mxCell>
        <mxCell id="zRgTGlAYgOwRYu9JpwOK-9" value="" style="shape=curlyBracket;whiteSpace=wrap;html=1;rounded=1;rotation=-180;" parent="1" vertex="1">
          <mxGeometry x="266" y="150" width="20" height="300" as="geometry" />
        </mxCell>
        <mxCell id="zRgTGlAYgOwRYu9JpwOK-10" value="cebeo.be/home&lt;br&gt;cebeo.be/search&lt;br&gt;cebeo.be/cart&lt;br&gt;cebeo.be/account" style="rounded=0;whiteSpace=wrap;html=1;" parent="1" vertex="1">
          <mxGeometry x="481" y="320" width="250" height="60" as="geometry" />
        </mxCell>
        <mxCell id="zRgTGlAYgOwRYu9JpwOK-11" value="" style="endArrow=classic;html=1;exitX=0.1;exitY=0.5;exitDx=0;exitDy=0;exitPerimeter=0;" parent="1" source="zRgTGlAYgOwRYu9JpwOK-9" edge="1">
          <mxGeometry width="50" height="50" relative="1" as="geometry">
            <mxPoint x="390" y="320" as="sourcePoint" />
            <mxPoint x="480" y="180" as="targetPoint" />
          </mxGeometry>
        </mxCell>
        <mxCell id="zRgTGlAYgOwRYu9JpwOK-12" value="" style="endArrow=classic;html=1;exitX=0.45;exitY=0.503;exitDx=0;exitDy=0;exitPerimeter=0;entryX=0;entryY=0.5;entryDx=0;entryDy=0;" parent="1" source="zRgTGlAYgOwRYu9JpwOK-9" target="zRgTGlAYgOwRYu9JpwOK-10" edge="1">
          <mxGeometry width="50" height="50" relative="1" as="geometry">
            <mxPoint x="390" y="320" as="sourcePoint" />
            <mxPoint x="480" y="290" as="targetPoint" />
          </mxGeometry>
        </mxCell>
        <mxCell id="zRgTGlAYgOwRYu9JpwOK-13" value="" style="endArrow=classic;html=1;entryX=0;entryY=0.5;entryDx=0;entryDy=0;exitX=0.1;exitY=0.5;exitDx=0;exitDy=0;exitPerimeter=0;" parent="1" source="zRgTGlAYgOwRYu9JpwOK-9" target="zRgTGlAYgOwRYu9JpwOK-7" edge="1">
          <mxGeometry width="50" height="50" relative="1" as="geometry">
            <mxPoint x="390" y="320" as="sourcePoint" />
            <mxPoint x="440" y="270" as="targetPoint" />
          </mxGeometry>
        </mxCell>
        <mxCell id="zRgTGlAYgOwRYu9JpwOK-14" value="&lt;b&gt;App Configuration&lt;/b&gt;&lt;br&gt;client ID&lt;br&gt;redirect URI- based on env&lt;br&gt;brandEnv &quot;&lt;span style=&quot;color: rgb(255 , 255 , 255) ; font-family: &amp;#34;segoe ui&amp;#34; , , &amp;#34;apple color emoji&amp;#34; , &amp;#34;segoe ui emoji&amp;#34; , sans-serif ; background-color: rgb(50 , 49 , 49)&quot;&gt;B2C_1_spark-signin-non-prod&quot;&lt;br&gt;&lt;br&gt;API Configuration:&lt;br&gt;&lt;br&gt;Base URL (env specific)&lt;br&gt;Opco ID or Opco Name&lt;br&gt;&lt;br&gt;&lt;/span&gt;" style="shape=note;whiteSpace=wrap;html=1;backgroundOutline=1;darkOpacity=0.05;align=left;" parent="1" vertex="1">
          <mxGeometry x="230" y="-220" width="400" height="240" as="geometry" />
        </mxCell>
        <mxCell id="zRgTGlAYgOwRYu9JpwOK-15" value="SINT" style="shape=cube;whiteSpace=wrap;html=1;boundedLbl=1;backgroundOutline=1;darkOpacity=0.05;darkOpacity2=0.1;" parent="1" vertex="1">
          <mxGeometry x="130" y="470" width="120" height="80" as="geometry" />
        </mxCell>
        <mxCell id="zRgTGlAYgOwRYu9JpwOK-18" value="Cluster Per Environment" style="text;html=1;resizable=0;autosize=1;align=center;verticalAlign=middle;points=[];fillColor=none;strokeColor=none;rounded=0;" parent="1" vertex="1">
          <mxGeometry x="120" y="560" width="150" height="20" as="geometry" />
        </mxCell>
        <mxCell id="zRgTGlAYgOwRYu9JpwOK-20" value="sonepar.fr namespace" style="text;html=1;align=center;verticalAlign=middle;resizable=0;points=[];autosize=1;" parent="1" vertex="1">
          <mxGeometry x="330" y="170" width="130" height="20" as="geometry" />
        </mxCell>
        <mxCell id="zRgTGlAYgOwRYu9JpwOK-21" value="cebeo.be namespace" style="text;html=1;align=center;verticalAlign=middle;resizable=0;points=[];autosize=1;" parent="1" vertex="1">
          <mxGeometry x="349" y="300" width="130" height="20" as="geometry" />
        </mxCell>
        <mxCell id="zRgTGlAYgOwRYu9JpwOK-23" value="opco level namespace" style="text;html=1;align=center;verticalAlign=middle;resizable=0;points=[];autosize=1;" parent="1" vertex="1">
          <mxGeometry x="310" y="440" width="130" height="20" as="geometry" />
        </mxCell>
        <mxCell id="zRgTGlAYgOwRYu9JpwOK-25" value="&lt;b&gt;App Configuration&lt;/b&gt;&lt;br&gt;client ID&lt;br&gt;AD &amp;amp; IDP related configuration&lt;br&gt;API related conf&lt;br&gt;env variables&lt;br&gt;theme related confs&lt;br&gt;cms related confs" style="shape=note;whiteSpace=wrap;html=1;backgroundOutline=1;darkOpacity=0.05;" parent="1" vertex="1">
          <mxGeometry x="481" y="200" width="200" height="120" as="geometry" />
        </mxCell>
        <mxCell id="zRgTGlAYgOwRYu9JpwOK-26" value="" style="shape=curlyBracket;whiteSpace=wrap;html=1;rounded=1;rotation=0;size=0.08823529411764706;" parent="1" vertex="1">
          <mxGeometry x="90" y="150" width="18" height="300" as="geometry" />
        </mxCell>
        <mxCell id="zRgTGlAYgOwRYu9JpwOK-27" value="&lt;font style=&quot;font-size: 13px&quot;&gt;&lt;b&gt;Questions&lt;/b&gt;:&lt;br&gt;configuration management per opco and per environment?&lt;br&gt;routing and networking? Do we need Ingress controller per app or cluster level?&lt;br&gt;Manage rollouts&amp;nbsp;across development, staging, production and custom environments&lt;/font&gt;" style="text;html=1;resizable=0;autosize=1;align=left;verticalAlign=middle;points=[];fillColor=none;strokeColor=none;rounded=0;" parent="1" vertex="1">
          <mxGeometry x="108" y="645" width="500" height="60" as="geometry" />
        </mxCell>
      </root>
    </mxGraphModel>
  </diagram>
</mxfile>
